<svg xmlns="http://www.w3.org/2000/svg" xmlns:xlink="http://www.w3.org/1999/xlink" width="808" zoomAndPan="magnify" viewBox="0 0 606 342.749987" height="457" preserveAspectRatio="xMidYMid meet" version="1.0"><defs><clipPath id="845c833a8d"><path d="M 132.210938 0 L 473.960938 0 L 473.960938 342.5 L 132.210938 342.5 Z M 132.210938 0 " clip-rule="nonzero"/></clipPath></defs><g clip-path="url(#845c833a8d)"><path fill="#ffffff" d="M 332.167969 200.570312 C 330.542969 202.019531 328.214844 203.417969 327.710938 203.246094 C 327.351562 203.121094 327.964844 202.636719 329.964844 201.460938 C 331.476562 200.574219 332.777344 199.84375 332.855469 199.839844 C 332.933594 199.835938 332.625 200.164062 332.167969 200.570312 Z M 311.113281 236.789062 C 310.839844 238.058594 310.316406 239.644531 309.957031 240.316406 C 309.058594 241.972656 306.644531 244.3125 303.175781 246.878906 C 296.171875 252.070312 292.953125 254.519531 291.3125 255.925781 C 289.832031 257.1875 289.644531 257.289062 290.136719 256.542969 C 291.015625 255.214844 293.300781 252.574219 295.738281 250.078125 C 296.929688 248.851562 299.125 246.40625 300.617188 244.636719 C 302.105469 242.867188 304.601562 240.191406 306.164062 238.6875 C 309.15625 235.808594 310.414062 234.03125 310.96875 231.890625 L 311.304688 230.597656 L 311.457031 232.539062 C 311.558594 233.808594 311.4375 235.277344 311.113281 236.789062 Z M 291.414062 240.710938 C 289.644531 242.289062 287.132812 244.628906 285.828125 245.910156 C 283.664062 248.042969 280.757812 250.316406 277.90625 252.109375 L 276.792969 252.8125 L 277.613281 251.855469 C 278.0625 251.328125 279.800781 249.792969 281.476562 248.441406 C 283.152344 247.085938 285.886719 244.722656 287.554688 243.179688 C 289.222656 241.640625 291.460938 239.753906 292.527344 238.984375 C 294.523438 237.546875 294.613281 237.492188 294.621094 237.710938 C 294.621094 237.78125 293.179688 239.132812 291.414062 240.710938 Z M 324.964844 192.21875 C 326.167969 190.75 327.550781 186.585938 327.484375 184.640625 C 327.445312 183.523438 327.308594 183.199219 326.707031 182.789062 L 325.972656 182.296875 L 327.097656 179.242188 C 327.714844 177.5625 328.882812 174.960938 329.6875 173.460938 C 332.058594 169.066406 333.050781 166.140625 333.929688 161.003906 C 334.847656 155.617188 335.195312 154.402344 336.328125 152.628906 C 336.785156 151.910156 337.578125 150.3125 338.089844 149.085938 C 340.363281 143.625 341.25 141.902344 344.460938 136.703125 C 346.335938 133.664062 348.523438 129.757812 349.320312 128.023438 C 350.933594 124.511719 351.964844 122.636719 352.28125 122.644531 C 352.398438 122.644531 353.203125 122.789062 354.066406 122.964844 C 355.855469 123.324219 357.316406 123.960938 359.859375 125.480469 C 360.832031 126.058594 361.753906 126.574219 361.914062 126.621094 C 362.074219 126.667969 361.832031 127.605469 361.371094 128.71875 C 360.914062 129.828125 360.019531 132.097656 359.386719 133.761719 C 358.335938 136.523438 358.03125 137.007812 355.933594 139.289062 C 352.691406 142.8125 348.761719 147.957031 348.011719 149.664062 C 347.664062 150.457031 346.671875 153.140625 345.808594 155.628906 C 344.109375 160.535156 343.09375 162.398438 339.292969 167.605469 C 336.78125 171.046875 336.753906 171.113281 336.160156 175.941406 C 335.652344 180.101562 334.707031 182.953125 332.847656 185.96875 C 331.007812 188.953125 329.4375 190.507812 326.800781 191.941406 C 324.789062 193.035156 324.226562 193.121094 324.964844 192.21875 Z M 321.378906 193.078125 C 321.101562 192.824219 322.488281 188.753906 323.339844 187.316406 C 324.023438 186.164062 325.292969 184.738281 325.648438 184.722656 C 325.691406 184.722656 325.574219 185.394531 325.386719 186.214844 C 324.890625 188.402344 323.613281 191.058594 322.503906 192.210938 C 321.96875 192.765625 321.460938 193.15625 321.378906 193.078125 Z M 355.386719 118.828125 C 356.359375 117.832031 357.65625 117.621094 358.96875 118.246094 C 359.398438 118.449219 360.082031 118.949219 360.488281 119.355469 L 361.226562 120.089844 L 360.363281 119.882812 C 359.890625 119.769531 358.382812 119.714844 357.015625 119.761719 C 355.648438 119.8125 354.527344 119.820312 354.527344 119.78125 C 354.523438 119.746094 354.914062 119.316406 355.386719 118.828125 Z M 363.417969 123.265625 L 362.914062 123.980469 C 362.449219 124.636719 362.351562 124.664062 361.742188 124.3125 C 361.375 124.101562 360.03125 123.335938 358.75 122.609375 L 356.429688 121.289062 L 357.855469 121.433594 C 358.640625 121.511719 360.214844 121.957031 361.351562 122.421875 Z M 317.269531 196.71875 C 315.082031 197.667969 314.007812 198.011719 313.996094 197.769531 C 313.992188 197.566406 314.257812 196.070312 314.59375 194.445312 C 314.925781 192.820312 315.1875 191.140625 315.171875 190.710938 C 315.140625 189.773438 315.386719 189.726562 316.40625 190.472656 C 316.894531 190.832031 317.359375 191.605469 317.691406 192.628906 C 318.320312 194.566406 318.558594 194.867188 319.667969 195.113281 C 320.460938 195.289062 320.277344 195.414062 317.269531 196.71875 Z M 312.480469 195.152344 C 311.652344 198.996094 311.324219 199.875 310.386719 200.761719 L 309.769531 201.351562 L 309.914062 200.351562 C 310.101562 199.089844 313.003906 191.003906 313.140625 191.367188 C 313.191406 191.515625 312.898438 193.21875 312.480469 195.152344 Z M 241.261719 234.046875 C 240.242188 232.867188 238.566406 229.476562 237.933594 227.300781 C 237.300781 225.128906 236.695312 222.011719 236.953125 222.25 C 237.035156 222.324219 237.863281 223.960938 238.792969 225.882812 C 240.359375 229.117188 241.136719 231.25 241.652344 233.746094 L 241.859375 234.738281 Z M 379.382812 134.902344 C 379.890625 133.804688 380.433594 132.214844 380.589844 131.371094 C 380.832031 130.070312 381.050781 129.714844 382.007812 129.007812 C 384.300781 127.316406 385.34375 126.878906 386.40625 127.167969 C 387.210938 127.382812 387.976562 127.257812 390.761719 126.449219 C 393.847656 125.550781 395.699219 125.195312 395.710938 125.496094 C 395.710938 125.558594 394.886719 126.03125 393.878906 126.546875 C 390.269531 128.390625 389.734375 129.238281 391.242188 130.703125 C 391.976562 131.414062 391.992188 131.476562 391.488281 131.660156 C 391.191406 131.769531 390.386719 132.105469 389.691406 132.40625 C 388.996094 132.710938 387.542969 133.269531 386.460938 133.652344 C 385.378906 134.035156 383.507812 134.832031 382.300781 135.425781 C 380.316406 136.402344 378.472656 137.144531 378.464844 136.96875 C 378.464844 136.933594 378.878906 136.003906 379.382812 134.902344 Z M 396.996094 112.386719 C 398.140625 110.941406 399.773438 108.582031 400.625 107.144531 C 405.597656 98.738281 407.21875 96.683594 405.3125 101.199219 C 403.945312 104.449219 397.988281 112.671875 395.800781 114.339844 C 395.195312 114.800781 395.574219 114.183594 396.996094 112.386719 Z M 351.367188 175.3125 C 350.824219 176.921875 349.8125 178.902344 349.628906 178.726562 C 349.347656 178.460938 350.0625 175.257812 350.804688 173.460938 L 351.640625 171.441406 L 351.765625 172.597656 C 351.839844 173.269531 351.667969 174.410156 351.367188 175.3125 Z M 337.132812 198.859375 C 338.839844 196.433594 338.875 195.398438 337.289062 194.429688 C 335.832031 193.535156 333.121094 192.730469 331.097656 192.589844 L 329.453125 192.472656 L 330.222656 191.960938 C 332.292969 190.589844 335.621094 185.65625 336.84375 182.148438 C 337.273438 180.917969 337.820312 178.242188 338.132812 175.871094 L 338.675781 171.738281 L 340.929688 168.652344 C 345.3125 162.644531 345.78125 161.75 348.234375 154.691406 C 349.128906 152.113281 350.082031 149.691406 350.351562 149.3125 C 351.078125 148.292969 355.097656 143.046875 355.828125 142.167969 L 356.460938 141.402344 L 356.347656 142.277344 C 356.285156 142.761719 356.136719 144.558594 356.015625 146.273438 C 355.683594 151.007812 354.066406 159.722656 352.8125 163.539062 C 352.203125 165.378906 350.921875 168.578125 349.957031 170.644531 C 348.109375 174.609375 347.695312 176.078125 347.765625 178.410156 C 347.84375 181.085938 349.605469 181.976562 351.082031 180.09375 C 352.097656 178.796875 353.308594 176.066406 353.65625 174.289062 C 353.941406 172.847656 353.957031 172.824219 354.085938 173.753906 C 354.300781 175.320312 354.023438 176.355469 352.738281 178.804688 C 351.472656 181.214844 351.347656 182.246094 352.253906 182.769531 C 352.984375 183.191406 355.597656 181.660156 357.339844 179.78125 C 359.53125 177.421875 362.660156 172.546875 365.128906 167.648438 C 368.605469 160.761719 368.902344 159.703125 369.589844 151.804688 C 369.816406 149.160156 370.160156 146.589844 370.355469 146.085938 C 370.695312 145.191406 371.769531 144.039062 375.070312 141.023438 C 376.269531 139.929688 377.191406 139.371094 378.535156 138.925781 C 379.539062 138.59375 381.371094 137.851562 382.605469 137.277344 C 386.121094 135.632812 391.207031 133.730469 392.289062 133.644531 C 393.171875 133.578125 393.300781 133.664062 393.492188 134.417969 C 394.085938 136.75 393.824219 140.683594 392.765625 145.394531 C 392.5 146.578125 392.214844 148.375 392.136719 149.390625 C 392.054688 150.40625 391.828125 151.503906 391.636719 151.828125 C 391.1875 152.578125 391.113281 165.230469 391.542969 166.972656 C 392.054688 169.039062 394.144531 170.207031 398.109375 170.644531 C 400.40625 170.898438 402.667969 169.140625 404.304688 165.832031 C 404.679688 165.074219 406.035156 160.925781 407.316406 156.617188 C 409.625 148.820312 409.878906 147.59375 411.238281 137.636719 C 412.214844 130.484375 413.496094 126.785156 417.574219 119.367188 C 418.710938 117.300781 420.277344 113.855469 421.058594 111.707031 C 421.839844 109.558594 422.714844 107.152344 423.003906 106.359375 C 423.925781 103.804688 426.140625 94.976562 426.8125 91.164062 C 427.375 88.003906 427.429688 87.078125 427.191406 84.851562 C 426.574219 78.984375 424.339844 70.871094 422.050781 66.160156 C 420.535156 63.046875 420.492188 62.890625 420.539062 60.796875 C 420.578125 59.058594 420.753906 58.296875 421.449219 56.882812 C 422.800781 54.117188 426.320312 49.292969 428.984375 46.550781 C 432.738281 42.683594 433.601562 41.972656 449.558594 29.664062 C 461.8125 20.210938 469.8125 13.382812 471.621094 10.828125 C 473.601562 8.03125 473.929688 6.574219 472.554688 6.628906 C 472.128906 6.648438 471.671875 7.132812 471.007812 8.28125 C 470.496094 9.171875 469.328125 10.644531 468.417969 11.546875 C 465.308594 14.648438 456.179688 22.199219 448.78125 27.796875 C 441.066406 33.632812 432.382812 40.585938 429.761719 43.027344 C 424.539062 47.894531 419.78125 54.585938 418.820312 58.410156 C 418.148438 61.097656 418.523438 63.558594 420.078125 66.609375 C 422.003906 70.390625 423.53125 75.253906 424.769531 81.53125 C 425.8125 86.820312 425.539062 89.480469 422.929688 99.535156 C 420.964844 107.117188 418.242188 114.230469 415.238281 119.648438 C 411.710938 126 410.230469 130.421875 409.367188 137.132812 C 408.53125 143.664062 407.621094 148.871094 406.96875 150.871094 C 406.582031 152.058594 405.894531 154.386719 405.441406 156.046875 C 403.261719 164.035156 402.132812 166.6875 400.324219 168.035156 C 399.777344 168.441406 398.953125 168.785156 398.492188 168.800781 C 396.910156 168.851562 394.519531 168.132812 393.839844 167.402344 C 393.1875 166.707031 393.179688 166.617188 393.105469 160.238281 C 393.0625 156.683594 393.144531 153.445312 393.285156 153.039062 C 393.617188 152.085938 394.613281 151.460938 398.550781 149.730469 C 401.378906 148.488281 401.78125 148.226562 401.835938 147.59375 C 401.925781 146.535156 401.160156 146.105469 399.292969 146.171875 C 398.0625 146.214844 397.265625 146.449219 395.949219 147.160156 C 395.003906 147.671875 394.222656 147.953125 394.21875 147.785156 C 394.214844 147.617188 394.382812 146.832031 394.59375 146.042969 C 396.386719 139.304688 395.953125 132.4375 393.59375 130.238281 L 392.753906 129.457031 L 394.410156 128.542969 C 395.324219 128.042969 397.238281 127.167969 398.664062 126.601562 C 400.09375 126.03125 401.785156 125.210938 402.421875 124.777344 C 405.695312 122.542969 407.171875 120.0625 405.5625 119.511719 C 405.023438 119.324219 404.308594 119.734375 402.539062 121.242188 C 400.265625 123.1875 399.230469 123.5625 396.023438 123.617188 C 393.765625 123.65625 392.6875 123.832031 390.4375 124.523438 C 388.90625 125 387.597656 125.335938 387.53125 125.273438 C 387.363281 125.113281 392.457031 119.871094 394.59375 118.007812 C 397.738281 115.261719 400.351562 112.371094 402.96875 108.730469 C 407.601562 102.289062 409.539062 96.941406 407.65625 95.800781 C 406.195312 94.914062 404.742188 96.539062 400.035156 104.320312 C 398.492188 106.875 396.203125 110.285156 394.953125 111.894531 C 391.507812 116.335938 386.65625 121.339844 383.6875 123.515625 C 382.238281 124.578125 380.714844 125.84375 380.300781 126.324219 C 379.546875 127.210938 378.953125 128.890625 378.6875 130.894531 C 378.609375 131.492188 378.003906 133.136719 377.34375 134.546875 C 376.121094 137.164062 374.96875 138.535156 370.867188 142.273438 C 368.550781 144.382812 368.273438 145.191406 367.710938 151.429688 C 366.988281 159.429688 366.851562 159.898438 362.824219 167.882812 C 361.082031 171.34375 357.109375 177.355469 355.5 178.96875 C 354.449219 180.023438 354.421875 179.859375 355.320312 177.921875 C 355.761719 176.972656 356.046875 175.761719 356.097656 174.644531 C 356.171875 173.042969 356.070312 172.667969 355.082031 170.761719 C 354.476562 169.597656 353.796875 168.582031 353.566406 168.503906 C 353.214844 168.382812 353.242188 168.117188 353.738281 166.867188 C 354.753906 164.3125 355.898438 160.058594 356.53125 156.476562 C 357.476562 151.132812 357.582031 150.367188 357.789062 147.472656 C 357.894531 145.984375 358.09375 144.054688 358.226562 143.191406 C 358.484375 141.558594 361.898438 132.316406 363.671875 128.457031 C 365.773438 123.878906 368.585938 116.4375 368.960938 114.453125 C 369.601562 111.066406 369.332031 109.234375 368.195312 109.273438 C 367.515625 109.296875 366.976562 110.695312 365.902344 115.238281 C 365.308594 117.734375 364.675781 120.132812 364.496094 120.570312 L 364.164062 121.367188 L 363.203125 119.761719 C 361.574219 117.039062 358.835938 115.597656 356.21875 116.082031 C 355.191406 116.273438 354.734375 116.625 353 118.574219 C 350.457031 121.429688 349.691406 122.632812 347.800781 126.773438 C 346.960938 128.601562 345.167969 131.863281 343.804688 134.023438 C 340.152344 139.824219 338.679688 142.546875 337.128906 146.371094 C 336.363281 148.261719 335.242188 150.636719 334.636719 151.644531 C 333.273438 153.921875 332.921875 155.105469 332.074219 160.320312 C 331.347656 164.777344 330.34375 168.039062 328.847656 170.816406 C 327.667969 173 325.554688 177.738281 324.648438 180.234375 C 324.265625 181.277344 323.175781 183.425781 322.21875 185.011719 C 321.265625 186.59375 320.296875 188.539062 320.070312 189.328125 C 319.527344 191.230469 319.332031 191.402344 318.871094 190.394531 C 318.660156 189.929688 317.761719 189.027344 316.875 188.386719 C 315.984375 187.746094 315.074219 187.082031 314.851562 186.914062 C 314.507812 186.65625 314.589844 186.148438 315.355469 183.769531 C 315.859375 182.207031 316.894531 178.472656 317.660156 175.476562 C 319.992188 166.335938 320.796875 164.332031 324.929688 157.355469 C 331.53125 146.207031 334.816406 140.953125 338.417969 135.777344 C 351.375 117.148438 358.078125 106.027344 364.613281 92.324219 C 367.3125 86.660156 368.652344 83.273438 371.117188 75.890625 C 374.234375 66.539062 377.082031 60.367188 381.933594 52.449219 C 385.847656 46.054688 389.863281 40.570312 404.015625 22.292969 C 407.515625 17.765625 412.328125 11.34375 414.703125 8.019531 C 417.082031 4.6875 419.144531 1.890625 419.285156 1.792969 C 419.429688 1.699219 419.535156 1.3125 419.523438 0.929688 C 419.488281 0.0117188 418.402344 0.0195312 417.597656 0.941406 C 417.28125 1.304688 416.3125 2.609375 415.445312 3.839844 C 412.386719 8.171875 408.960938 12.75 404.363281 18.648438 C 397.316406 27.683594 387.183594 41.066406 384.292969 45.15625 C 381.601562 48.957031 376.628906 57.515625 374.535156 61.949219 C 372.261719 66.761719 370.660156 70.859375 368.921875 76.296875 C 367.207031 81.679688 365.117188 86.824219 362.203125 92.84375 C 355.929688 105.816406 349.011719 117.183594 336.253906 135.484375 C 331.410156 142.433594 321.582031 158.722656 319.546875 163.175781 C 318.0625 166.421875 317.269531 168.882812 315.886719 174.539062 C 314.574219 179.910156 312.039062 188.199219 310.066406 193.570312 C 308.269531 198.453125 307.820312 200.15625 307.878906 201.863281 C 307.925781 203.160156 307.875 203.246094 306.070312 204.898438 C 305.046875 205.835938 303.09375 207.410156 301.726562 208.402344 C 300.359375 209.390625 297.660156 211.835938 295.730469 213.835938 C 292.65625 217.015625 290.917969 218.449219 287.0625 220.980469 C 286.429688 221.394531 286.214844 221.769531 286.175781 222.527344 L 286.128906 223.53125 L 283.9375 223.597656 C 282.140625 223.65625 281.457031 223.816406 280.132812 224.496094 C 277.792969 225.691406 274.605469 228.144531 271.910156 230.816406 C 267.582031 235.117188 263.8125 237.6875 260.222656 238.792969 C 258.671875 239.269531 253.351562 239.203125 251.648438 238.683594 C 249.847656 238.132812 248.210938 236.941406 246.773438 235.132812 C 245.566406 233.613281 241.089844 225.851562 239.574219 222.648438 C 239.226562 221.914062 238.738281 221.128906 238.496094 220.898438 C 237.9375 220.378906 237.21875 220.660156 236.992188 221.484375 C 236.71875 222.496094 235.914062 219.683594 235.761719 217.171875 C 235.617188 214.816406 236.023438 213.484375 237.734375 210.703125 C 238.667969 209.1875 239.351562 207.214844 240.0625 203.996094 C 240.28125 203.003906 241.222656 200.097656 242.152344 197.53125 C 244.761719 190.355469 245.164062 187.335938 244.488281 180.007812 C 244.015625 174.882812 243.347656 171.378906 242.558594 169.851562 C 241.289062 167.402344 238.625 165.96875 235.992188 166.3125 C 234.71875 166.480469 234.382812 166.664062 233.644531 167.582031 C 232.5 169 232.269531 170.203125 232.101562 175.625 C 231.890625 182.425781 231.84375 182.621094 229.246094 187.699219 C 227.980469 190.167969 225.84375 194.621094 224.492188 197.59375 C 223.140625 200.566406 221.445312 203.855469 220.722656 204.898438 C 220 205.9375 217.714844 208.589844 215.652344 210.789062 C 211.472656 215.234375 211.683594 214.816406 210.429688 221.1875 C 209.523438 225.804688 204.804688 235.882812 200.929688 241.488281 C 198.828125 244.53125 195.992188 247.007812 187.441406 253.28125 C 178.890625 259.554688 174.203125 263.054688 168.320312 267.566406 C 162.335938 272.160156 152.707031 279.242188 143.195312 286.050781 C 136.082031 291.144531 132.664062 294.269531 132.714844 295.644531 C 132.742188 296.417969 133.285156 296.800781 133.835938 296.433594 C 134.015625 296.316406 134.453125 295.792969 134.808594 295.269531 C 135.769531 293.871094 138.765625 291.390625 142.855469 288.617188 C 144.84375 287.265625 147.53125 285.375 148.828125 284.414062 C 150.125 283.453125 153.621094 280.90625 156.597656 278.753906 C 159.574219 276.601562 165.191406 272.40625 169.082031 269.433594 C 175.914062 264.207031 181.453125 260.070312 189.882812 253.910156 C 194.898438 250.242188 199.050781 246.804688 200.699219 244.949219 C 203.507812 241.792969 206.632812 236.316406 209.679688 229.222656 C 211.507812 224.957031 212.003906 223.457031 212.515625 220.652344 C 212.859375 218.78125 213.316406 216.859375 213.539062 216.382812 C 213.757812 215.90625 215.683594 213.601562 217.820312 211.257812 C 219.957031 208.914062 222.171875 206.292969 222.75 205.4375 C 223.324219 204.578125 225.015625 201.191406 226.511719 197.910156 C 228.003906 194.625 230.054688 190.359375 231.070312 188.425781 C 233.722656 183.367188 233.757812 183.226562 233.890625 177.613281 C 234.070312 169.878906 234.535156 168.28125 236.636719 168.214844 C 238.117188 168.171875 239.867188 169.175781 240.679688 170.53125 C 241.574219 172.023438 242.320312 176.066406 242.738281 181.652344 C 243.160156 187.339844 242.722656 190.15625 240.390625 196.667969 C 239.484375 199.207031 238.382812 202.699219 237.949219 204.433594 C 237.089844 207.839844 236.851562 208.453125 235.582031 210.480469 C 233.558594 213.714844 233.378906 216.4375 234.777344 222.578125 C 236.429688 229.824219 238.0625 233.617188 240.710938 236.363281 C 242.617188 238.335938 243.960938 238.109375 243.90625 235.816406 L 243.882812 234.667969 L 244.371094 235.359375 C 245.351562 236.753906 248.898438 239.796875 250.09375 240.273438 C 250.910156 240.597656 252.671875 240.828125 255.316406 240.960938 L 259.308594 241.15625 L 262.09375 240.125 C 265.597656 238.824219 268.625 236.71875 272.707031 232.75 C 276.101562 229.445312 279.429688 226.90625 281.539062 226.011719 C 282.691406 225.523438 283.367188 225.429688 285.257812 225.503906 C 287.3125 225.585938 287.617188 225.53125 288.046875 225.023438 C 288.410156 224.59375 288.476562 224.199219 288.308594 223.460938 C 288.097656 222.515625 288.140625 222.445312 289.285156 221.8125 C 291.40625 220.640625 293.726562 218.675781 297.460938 214.894531 C 299.464844 212.859375 302.148438 210.449219 303.421875 209.535156 C 304.695312 208.625 306.851562 206.847656 308.214844 205.59375 C 314.621094 199.699219 314.378906 199.847656 322.359375 196.796875 C 329.277344 194.15625 331.347656 193.953125 335.195312 195.558594 C 336.542969 196.125 336.585938 196.195312 336.042969 196.964844 C 335.730469 197.410156 335.578125 197.441406 335.09375 197.164062 C 334.382812 196.753906 332.742188 197.441406 329.082031 199.691406 C 327.742188 200.515625 326.539062 201.191406 326.410156 201.195312 C 325.925781 201.214844 324.976562 202.433594 324.996094 203.011719 C 325.007812 203.347656 325.238281 203.84375 325.507812 204.121094 C 325.777344 204.402344 325.945312 204.671875 325.886719 204.722656 C 325.824219 204.777344 324.894531 205.335938 323.820312 205.964844 C 320.6875 207.804688 318.4375 209.46875 315.636719 212.023438 C 312.820312 214.585938 307.175781 221.324219 305.257812 224.410156 C 302.703125 228.511719 299.800781 231.40625 294.253906 235.375 C 291.582031 237.289062 287.964844 240.160156 286.21875 241.761719 C 284.472656 243.363281 281.5625 245.875 279.753906 247.339844 C 275.507812 250.78125 272.730469 254.460938 273.507812 255.609375 C 274.082031 256.449219 274.707031 256.28125 277.773438 254.449219 C 281.636719 252.144531 283.929688 250.40625 286.917969 247.515625 C 288.246094 246.234375 290.5 244.15625 291.925781 242.902344 C 293.347656 241.648438 295.398438 239.683594 296.472656 238.535156 C 299.820312 234.976562 305.011719 228.523438 306.558594 226.007812 C 307.980469 223.691406 313.320312 216.929688 315.171875 215.101562 L 316.066406 214.21875 L 315.601562 215.230469 C 315.347656 215.785156 314.363281 217.714844 313.417969 219.515625 C 311.417969 223.308594 310.738281 225.058594 309.808594 228.8125 C 309.4375 230.304688 308.898438 232.046875 308.609375 232.683594 C 308.316406 233.339844 306.164062 235.882812 303.652344 238.546875 C 294.222656 248.546875 289.542969 253.882812 287.214844 257.277344 C 284.925781 260.621094 280.503906 267.621094 279.863281 268.910156 C 279.691406 269.257812 278.914062 270.839844 278.136719 272.425781 C 276.597656 275.5625 275.53125 276.90625 273.816406 277.859375 C 272.117188 278.800781 270.675781 279.03125 261.488281 279.835938 C 252.15625 280.648438 251.765625 280.695312 245.644531 281.710938 C 239.628906 282.707031 235.417969 283.738281 224.636719 286.863281 C 219.4375 288.367188 213.464844 289.914062 211.363281 290.296875 C 209.265625 290.679688 205.894531 291.363281 203.875 291.816406 C 201.855469 292.269531 198.441406 292.972656 196.285156 293.375 C 187.597656 295.003906 182.898438 297.34375 177.226562 302.875 C 175.863281 304.199219 173.140625 306.695312 171.175781 308.417969 C 169.207031 310.136719 166.28125 312.816406 164.667969 314.367188 C 163.054688 315.921875 160.378906 318.328125 158.722656 319.714844 C 157.0625 321.101562 153.40625 324.238281 150.589844 326.683594 C 144.753906 331.757812 140.871094 334.875 135.96875 338.425781 C 134.085938 339.789062 132.476562 341.105469 132.394531 341.339844 C 132.261719 341.726562 133.023438 342.519531 133.507812 342.5 C 134.289062 342.476562 145.550781 333.679688 151.785156 328.222656 C 154.140625 326.164062 157.746094 323.058594 159.796875 321.324219 C 161.851562 319.589844 164.582031 317.152344 165.871094 315.90625 C 167.15625 314.660156 169.886719 312.164062 171.9375 310.363281 C 173.988281 308.5625 176.71875 306.070312 178.003906 304.824219 C 180.789062 302.136719 182.839844 300.472656 184.921875 299.21875 C 187.136719 297.882812 191.894531 296.195312 195.324219 295.535156 C 196.957031 295.21875 200.707031 294.4375 203.660156 293.800781 C 206.613281 293.164062 210.460938 292.394531 212.210938 292.089844 C 213.964844 291.785156 219.671875 290.304688 224.894531 288.796875 C 230.117188 287.289062 235.886719 285.683594 237.71875 285.230469 C 243.191406 283.875 251.289062 282.664062 260.09375 281.886719 C 264.65625 281.484375 269.476562 280.988281 270.800781 280.785156 C 275.417969 280.074219 277.496094 278.25 280.453125 272.328125 C 281.601562 270.027344 282.765625 268.195312 283.960938 266.808594 C 284.945312 265.667969 286.90625 263.375 288.324219 261.71875 C 291.105469 258.460938 292.742188 257.078125 301.890625 250.246094 C 312.558594 242.285156 313.347656 240.910156 313.429688 230.238281 C 313.46875 224.847656 313.769531 222.382812 314.511719 221.414062 C 314.648438 221.238281 315.5625 219.460938 316.546875 217.472656 C 319.367188 211.75 320.3125 210.480469 323.085938 208.710938 C 326.457031 206.558594 328.664062 205.382812 329.390625 205.359375 C 331.179688 205.296875 334.660156 202.375 337.132812 198.859375 " fill-opacity="1" fill-rule="nonzero"/></g></svg>